<?xml version="1.0" encoding="UTF-8" standalone="no"?>
<svg
   xmlns:dc="http://purl.org/dc/elements/1.1/"
   xmlns:cc="http://creativecommons.org/ns#"
   xmlns:rdf="http://www.w3.org/1999/02/22-rdf-syntax-ns#"
   xmlns:svg="http://www.w3.org/2000/svg"
   xmlns="http://www.w3.org/2000/svg"
   xmlns:sodipodi="http://sodipodi.sourceforge.net/DTD/sodipodi-0.dtd"
   xmlns:inkscape="http://www.inkscape.org/namespaces/inkscape"
   width="650mm"
   height="650mm"
   viewBox="0 0 650 650"
   version="1.1"
   id="svg8"
   inkscape:version="1.0 (4035a4fb49, 2020-05-01)"
   sodipodi:docname="favicon.svg"
   inkscape:export-filename="C:\Users\Elliot\git\whispustration\src\favicon.png"
   inkscape:export-xdpi="21.985918"
   inkscape:export-ydpi="21.985918">
  <defs
     id="defs2">
    <inkscape:path-effect
       lpeversion="1"
       is_visible="true"
       id="path-effect1104"
       effect="spiro" />
    <inkscape:path-effect
       effect="spiro"
       id="path-effect172"
       is_visible="true"
       lpeversion="1" />
    <inkscape:path-effect
       effect="skeletal"
       id="path-effect112"
       is_visible="true"
       lpeversion="1"
       pattern="M 0,5 C 0,2.24 2.24,0 5,0 7.76,0 10,2.24 10,5 10,7.76 7.76,10 5,10 2.24,10 0,7.76 0,5 Z"
       copytype="single_stretched"
       prop_scale="1"
       scale_y_rel="false"
       spacing="0"
       normal_offset="0"
       tang_offset="0"
       prop_units="false"
       vertical_pattern="false"
       hide_knot="false"
       fuse_tolerance="0" />
    <inkscape:path-effect
       effect="skeletal"
       id="path-effect106"
       is_visible="true"
       lpeversion="1"
       pattern="M 0,5 C 0,2.24 2.24,0 5,0 7.76,0 10,2.24 10,5 10,7.76 7.76,10 5,10 2.24,10 0,7.76 0,5 Z"
       copytype="single_stretched"
       prop_scale="1"
       scale_y_rel="false"
       spacing="0"
       normal_offset="0"
       tang_offset="0"
       prop_units="false"
       vertical_pattern="false"
       hide_knot="false"
       fuse_tolerance="0" />
    <inkscape:path-effect
       effect="skeletal"
       id="path-effect100"
       is_visible="true"
       lpeversion="1"
       pattern="M 0,5 C 0,2.24 2.24,0 5,0 7.76,0 10,2.24 10,5 10,7.76 7.76,10 5,10 2.24,10 0,7.76 0,5 Z"
       copytype="single_stretched"
       prop_scale="1"
       scale_y_rel="false"
       spacing="0"
       normal_offset="0"
       tang_offset="0"
       prop_units="false"
       vertical_pattern="false"
       hide_knot="false"
       fuse_tolerance="0" />
    <inkscape:path-effect
       effect="skeletal"
       id="path-effect94"
       is_visible="true"
       lpeversion="1"
       pattern="M 0,5 C 0,2.24 2.24,0 5,0 7.76,0 10,2.24 10,5 10,7.76 7.76,10 5,10 2.24,10 0,7.76 0,5 Z"
       copytype="single_stretched"
       prop_scale="1"
       scale_y_rel="false"
       spacing="0"
       normal_offset="0"
       tang_offset="0"
       prop_units="false"
       vertical_pattern="false"
       hide_knot="false"
       fuse_tolerance="0" />
    <inkscape:path-effect
       effect="skeletal"
       id="path-effect86"
       is_visible="true"
       lpeversion="1"
       pattern="M 0,5 C 0,2.24 2.24,0 5,0 7.76,0 10,2.24 10,5 10,7.76 7.76,10 5,10 2.24,10 0,7.76 0,5 Z"
       copytype="single_stretched"
       prop_scale="1"
       scale_y_rel="false"
       spacing="0"
       normal_offset="0"
       tang_offset="0"
       prop_units="false"
       vertical_pattern="false"
       hide_knot="false"
       fuse_tolerance="0" />
    <inkscape:path-effect
       effect="skeletal"
       id="path-effect80"
       is_visible="true"
       lpeversion="1"
       pattern="M 0,5 C 0,2.24 2.24,0 5,0 7.76,0 10,2.24 10,5 10,7.76 7.76,10 5,10 2.24,10 0,7.76 0,5 Z"
       copytype="single_stretched"
       prop_scale="1"
       scale_y_rel="false"
       spacing="0"
       normal_offset="0"
       tang_offset="0"
       prop_units="false"
       vertical_pattern="false"
       hide_knot="false"
       fuse_tolerance="0" />
    <inkscape:path-effect
       effect="skeletal"
       id="path-effect76"
       is_visible="true"
       lpeversion="1"
       pattern="M 0,5 C 0,2.24 2.24,0 5,0 7.76,0 10,2.24 10,5 10,7.76 7.76,10 5,10 2.24,10 0,7.76 0,5 Z"
       copytype="single_stretched"
       prop_scale="1"
       scale_y_rel="false"
       spacing="0"
       normal_offset="0"
       tang_offset="0"
       prop_units="false"
       vertical_pattern="false"
       hide_knot="false"
       fuse_tolerance="0" />
  </defs>
  <sodipodi:namedview
     id="base"
     pagecolor="#ffffff"
     bordercolor="#666666"
     borderopacity="1.0"
     inkscape:pageopacity="0.0"
     inkscape:pageshadow="2"
     inkscape:zoom="0.35355339"
     inkscape:cx="1662.1665"
     inkscape:cy="926.39542"
     inkscape:document-units="mm"
     inkscape:current-layer="g1065"
     inkscape:document-rotation="0"
     showgrid="false"
     units="mm"
     showguides="false"
     inkscape:guide-bbox="true"
     inkscape:window-width="2560"
     inkscape:window-height="1377"
     inkscape:window-x="1912"
     inkscape:window-y="-8"
     inkscape:window-maximized="1">
    <sodipodi:guide
       position="-119.44048,9.9999999"
       orientation="0,1"
       id="guide18"
       inkscape:label=""
       inkscape:locked="false"
       inkscape:color="rgb(0,0,255)" />
    <sodipodi:guide
       position="9.9999999,276.23809"
       orientation="-1,0"
       id="guide20"
       inkscape:label=""
       inkscape:locked="false"
       inkscape:color="rgb(0,0,255)" />
    <sodipodi:guide
       position="77.863095,495"
       orientation="0,1"
       id="guide22"
       inkscape:label=""
       inkscape:locked="false"
       inkscape:color="rgb(0,0,255)" />
    <sodipodi:guide
       position="490,422.1369"
       orientation="-1,0"
       id="guide24"
       inkscape:label=""
       inkscape:locked="false"
       inkscape:color="rgb(0,0,255)" />
    <sodipodi:guide
       position="250,367.70833"
       orientation="-1,0"
       id="guide26"
       inkscape:label=""
       inkscape:locked="false"
       inkscape:color="rgb(0,0,255)" />
    <sodipodi:guide
       position="212.42262,349.245"
       orientation="0,1"
       id="guide28"
       inkscape:label=""
       inkscape:locked="false"
       inkscape:color="rgb(0,0,255)" />
    <sodipodi:guide
       position="309,422.22456"
       orientation="-1,0"
       id="guide32"
       inkscape:label=""
       inkscape:locked="false"
       inkscape:color="rgb(0,0,255)" />
    <sodipodi:guide
       position="397,403.99404"
       orientation="-1,0"
       id="guide34"
       inkscape:label=""
       inkscape:locked="false"
       inkscape:color="rgb(0,0,255)" />
    <sodipodi:guide
       position="336.02083,464.47023"
       orientation="0,-1"
       id="guide36" />
    <sodipodi:guide
       position="310.69643,250"
       orientation="0,1"
       id="guide40"
       inkscape:label=""
       inkscape:locked="false"
       inkscape:color="rgb(0,0,255)" />
    <sodipodi:guide
       position="46.302083,255"
       orientation="0,1"
       id="guide42"
       inkscape:label=""
       inkscape:locked="false"
       inkscape:color="rgb(0,0,255)" />
    <sodipodi:guide
       position="48.56994,245"
       orientation="0,1"
       id="guide44"
       inkscape:label=""
       inkscape:locked="false"
       inkscape:color="rgb(0,0,255)" />
    <sodipodi:guide
       position="250,490"
       orientation="0.44729085,0.89438856"
       id="guide46"
       inkscape:label=""
       inkscape:locked="false"
       inkscape:color="rgb(115,210,22)" />
    <sodipodi:guide
       position="269.94222,490"
       orientation="0,1"
       id="guide50"
       inkscape:label=""
       inkscape:locked="false"
       inkscape:color="rgb(0,0,255)" />
    <sodipodi:guide
       position="250,490"
       orientation="-0.44729085,0.89438856"
       id="guide52"
       inkscape:label=""
       inkscape:locked="false"
       inkscape:color="rgb(138,226,52)" />
    <sodipodi:guide
       position="108,424.09545"
       orientation="-1,0"
       id="guide54"
       inkscape:label=""
       inkscape:locked="false"
       inkscape:color="rgb(173,127,168)" />
    <sodipodi:guide
       position="206,363.95981"
       orientation="-1,0"
       id="guide56"
       inkscape:label=""
       inkscape:locked="false"
       inkscape:color="rgb(173,127,168)" />
    <sodipodi:guide
       position="304,363.95981"
       orientation="-1,0"
       id="guide58"
       inkscape:label=""
       inkscape:locked="false"
       inkscape:color="rgb(173,127,168)" />
    <sodipodi:guide
       position="402,363.95981"
       orientation="-1,0"
       id="guide60"
       inkscape:label=""
       inkscape:locked="false"
       inkscape:color="rgb(173,127,168)" />
    <sodipodi:guide
       position="15,314.79166"
       orientation="-1,0"
       id="guide64"
       inkscape:label=""
       inkscape:locked="false"
       inkscape:color="rgb(0,0,255)" />
    <sodipodi:guide
       position="103,322.8003"
       orientation="-1,0"
       id="guide66"
       inkscape:label=""
       inkscape:locked="false"
       inkscape:color="rgb(0,0,255)" />
    <sodipodi:guide
       position="113,392.29038"
       orientation="-1,0"
       id="guide70"
       inkscape:label=""
       inkscape:locked="false"
       inkscape:color="rgb(0,0,255)" />
    <sodipodi:guide
       position="201,386.41045"
       orientation="-1,0"
       id="guide72"
       inkscape:label=""
       inkscape:locked="false"
       inkscape:color="rgb(0,0,255)" />
    <sodipodi:guide
       position="157,403.78297"
       orientation="-1,0"
       id="guide82"
       inkscape:label=""
       inkscape:locked="false"
       inkscape:color="rgb(0,0,255)" />
    <sodipodi:guide
       position="157,443.48996"
       orientation="0,-1"
       id="guide118" />
    <sodipodi:guide
       position="211,420.62095"
       orientation="-1,0"
       id="guide174"
       inkscape:label=""
       inkscape:locked="false"
       inkscape:color="rgb(0,0,255)" />
    <sodipodi:guide
       position="299,428.10449"
       orientation="-1,0"
       id="guide176"
       inkscape:label=""
       inkscape:locked="false"
       inkscape:color="rgb(0,0,255)" />
    <sodipodi:guide
       position="354.35268,333.243"
       orientation="0,1"
       id="guide192"
       inkscape:label=""
       inkscape:locked="false"
       inkscape:color="rgb(0,0,255)" />
    <sodipodi:guide
       position="485,359.20387"
       orientation="-1,0"
       id="guide196"
       inkscape:label=""
       inkscape:locked="false"
       inkscape:color="rgb(0,0,255)" />
    <sodipodi:guide
       position="407,390.57589"
       orientation="-1,0"
       id="guide198"
       inkscape:label=""
       inkscape:locked="false"
       inkscape:color="rgb(0,0,255)" />
    <sodipodi:guide
       position="407,411.48305"
       orientation="0,-1"
       id="guide202" />
    <sodipodi:guide
       position="353,378.23286"
       orientation="-1,0"
       id="guide1052"
       inkscape:label=""
       inkscape:locked="false"
       inkscape:color="rgb(0,0,255)" />
    <sodipodi:guide
       position="73.318613,9.9999999"
       orientation="0,-1"
       id="guide1054" />
    <sodipodi:guide
       position="39.432254,15"
       orientation="0,1"
       id="guide1056"
       inkscape:label=""
       inkscape:locked="false"
       inkscape:color="rgb(0,0,255)" />
    <sodipodi:guide
       position="438.40771,62"
       orientation="0,1"
       id="guide1058"
       inkscape:label=""
       inkscape:locked="false"
       inkscape:color="rgb(0,0,255)" />
    <sodipodi:guide
       position="66.174748,57"
       orientation="0,1"
       id="guide1064"
       inkscape:label=""
       inkscape:locked="false"
       inkscape:color="rgb(0,0,255)" />
    <sodipodi:guide
       position="442.13702,153.5"
       orientation="0,1"
       id="guide1066"
       inkscape:label=""
       inkscape:locked="false"
       inkscape:color="rgb(0,0,255)" />
  </sodipodi:namedview>
  <metadata
     id="metadata5">
    <rdf:RDF>
      <cc:Work
         rdf:about="">
        <dc:format>image/svg+xml</dc:format>
        <dc:type
           rdf:resource="http://purl.org/dc/dcmitype/StillImage" />
        <dc:title />
      </cc:Work>
    </rdf:RDF>
  </metadata>
  <g
     inkscape:label="Layer 1"
     inkscape:groupmode="layer"
     id="layer1">
    <g
       id="g1280"
       transform="translate(25,25)">
      <g
         id="g1065"
         transform="translate(-3.1366399,-16.339447)">
        <circle
           r="297.58035"
           transform="rotate(-135.61965)"
           style="fill:#999999;fill-opacity:0.25;stroke:none;stroke-width:4.9397;stroke-linecap:round;stroke-linejoin:round;stroke-miterlimit:4;stroke-dasharray:none;stroke-opacity:1"
           id="circle1022"
           cx="-443.55725"
           cy="-14.133434" />
        <circle
           r="289.16422"
           cy="-14.026299"
           cx="-433.65085"
           id="circle1242"
           style="fill:#ffffff;fill-opacity:1;stroke:#00d5a5;stroke-width:30;stroke-linecap:round;stroke-linejoin:round;stroke-miterlimit:4;stroke-dasharray:none;stroke-opacity:1"
           transform="rotate(-135.61965)" />
        <circle
           style="fill:#e6e6e6;stroke:none;stroke-width:1.69466;stroke-linecap:round;stroke-linejoin:round;stroke-miterlimit:4;stroke-dasharray:none;stroke-opacity:1"
           id="path1234"
           cx="300"
           cy="313.20264"
           r="255.22722" />
        <g
           transform="translate(-0.28337782,1.5667858)"
           id="g998">
          <path
             id="path1191"
             d="m 273.52456,472.18282 c -4.70108,-0.10796 -9.26385,1.39171 -13.52681,3.24256 -9.12345,4.12964 -17.00658,10.50275 -24.34134,17.22586 -12.0902,11.2256 -22.80589,23.85062 -32.61333,37.09604 -0.54141,0.44073 -0.83061,1.47619 0.0719,1.66654 2.71845,0.40445 5.48726,0.44054 8.22774,0.65922 13.40727,0.80897 26.83968,1.26592 40.27257,1.1396 9.06513,0 18.1307,-0.17795 27.18218,-0.6929 20.1489,-1.07812 40.31317,-3.24203 59.97471,-7.89723 0.94582,-0.43587 0.26551,-1.53858 0.14907,-2.2608 -2.39239,-8.80765 -6.33059,-17.21641 -11.73308,-24.58183 -2.96101,-4.07516 -6.52463,-7.68034 -10.31077,-10.98752 -8.9809,-7.49868 -20.17441,-12.11377 -31.7179,-13.76154 -3.85022,-0.56494 -7.7436,-0.84574 -11.63491,-0.848 z m -18.83455,18.28326 c 4.70302,0.42265 9.45169,1.55842 13.65809,3.79496 2.87948,1.54508 5.51548,3.93957 6.33599,7.22108 0.80111,2.89291 -0.0439,6.01838 -1.69918,8.47197 -2.80218,4.15472 -6.99537,7.14922 -11.31987,9.55746 -0.86558,0.63732 -2.48551,0.54188 -2.69146,-0.71393 -0.27649,-0.88071 0.41754,-1.55095 1.12887,-1.91275 3.95824,-2.24401 7.90535,-4.8999 10.43091,-8.77567 1.27291,-1.94009 1.93973,-4.50547 0.89367,-6.69367 -1.36761,-3.04353 -4.54046,-4.7074 -7.5145,-5.83346 -3.14869,-1.12548 -6.45013,-1.76546 -9.75822,-2.18648 -1.41832,-0.19898 -1.54631,-2.40862 -0.2266,-2.85955 0.24417,-0.0822 0.50824,-0.0753 0.76239,-0.07 z m -19.61208,16.32118 c 1.6725,0.009 3.07331,1.78451 2.6855,3.4233 -0.29408,1.876 -2.65477,2.95213 -4.28214,1.9742 -1.89188,-1.00376 -1.86962,-4.10001 0.0452,-5.07296 0.47585,-0.24793 1.02012,-0.32576 1.55123,-0.32454 z"
             style="fill:#e6e6e6;stroke-width:0.914924;stroke-linecap:round;stroke-linejoin:round;stroke-miterlimit:4;stroke-dasharray:none" />
          <path
             id="path1193"
             d="m 228.75042,477.8952 c -2.52562,-0.0125 -5.08767,1.30565 -6.21619,3.62592 -1.73363,3.33022 -1.34642,7.26553 -0.70159,10.82984 0.43922,2.13485 0.95474,4.29924 1.80356,6.29559 0.65722,0.73352 1.3734,-0.32639 1.84859,-0.76891 4.99707,-4.99776 10.09796,-9.9094 15.60882,-14.34256 0.66281,-0.44117 0.46342,-1.45143 -0.29281,-1.65703 -3.69569,-2.04989 -7.72154,-4.04085 -12.05028,-3.98285 z"
             style="fill:#e6e6e6;stroke-width:0.914924;stroke-linecap:round;stroke-linejoin:round;stroke-miterlimit:4;stroke-dasharray:none" />
          <path
             style="fill:none;stroke:#000000;stroke-width:12;stroke-linecap:round;stroke-linejoin:miter;stroke-miterlimit:4;stroke-dasharray:none;stroke-opacity:1"
             d="m 356.99298,139.62329 c 0,0 -30.1334,25.97675 -26.14455,41.96883 2.43708,9.77065 16.10416,15.90797 26.14455,15.13626 21.50313,-1.65276 51.69074,-19.06605 50.38129,-40.59281 -2.71436,-44.62252 -69.1854,-72.411171 -113.86369,-70.865338 -39.51683,1.367256 -80.478,33.181568 -96.13675,69.489328 -9.06859,21.02716 -1.89282,47.94062 8.9442,68.11337 32.92727,61.29292 185.99392,168.07063 197.73949,236.64953 16.25577,94.91267 -205.21849,73.2589 -205.21849,73.2589 0,0 42.98402,-62.50134 74.58994,-62.27116 58.65239,0.4272 67.74831,54.37261 67.74831,54.37261"
             id="path1108"
             sodipodi:nodetypes="cssssssscsc" />
          <path
             sodipodi:nodetypes="csc"
             id="path1110"
             d="m 244.63586,482.40208 c 0,0 -13.84653,-10.26517 -21.36203,-4.35485 -7.78317,6.12084 -0.64278,22.79161 -0.64278,22.79161"
             style="fill:none;stroke:#000000;stroke-width:12;stroke-linecap:butt;stroke-linejoin:miter;stroke-miterlimit:4;stroke-dasharray:none;stroke-opacity:1" />
          <path
             style="fill:none;stroke:#000000;stroke-width:12;stroke-linecap:round;stroke-linejoin:miter;stroke-miterlimit:4;stroke-dasharray:none;stroke-opacity:1"
             d="m 260.41638,518.4404 c 0,0 14.63493,-7.17768 12.93146,-16.05758 -1.76402,-9.1961 -18.86999,-10.4332 -18.86999,-10.4332"
             id="path1110-3"
             sodipodi:nodetypes="csc" />
          <circle
             r="4.2859588"
             cy="482.2438"
             cx="287.02942"
             id="path1114"
             style="stroke-width:8.50855;stroke-linecap:round;stroke-linejoin:round;stroke-miterlimit:4;stroke-dasharray:none"
             transform="rotate(6.0130172)" />
          <path
             id="path1118"
             d="m 208.77288,535.52667 10.78182,6.29546"
             style="fill:none;stroke:#000000;stroke-width:2.5;stroke-linecap:round;stroke-linejoin:miter;stroke-miterlimit:4;stroke-dasharray:none;stroke-opacity:1"
             sodipodi:nodetypes="cc" />
          <path
             id="path1122"
             d="M 201.6977,530.16375 193.51478,517.5409"
             style="fill:none;stroke:#000000;stroke-width:2.5;stroke-linecap:round;stroke-linejoin:miter;stroke-miterlimit:4;stroke-dasharray:none;stroke-opacity:1" />
          <path
             id="path1124"
             d="m 208.77288,535.52667 7.47339,7.28777"
             style="fill:none;stroke:#000000;stroke-width:2.5;stroke-linecap:round;stroke-linejoin:miter;stroke-miterlimit:4;stroke-dasharray:none;stroke-opacity:1"
             sodipodi:nodetypes="cc" />
          <path
             id="path1126"
             d="m 201.6977,530.16375 -10.73097,-9.77809"
             style="fill:none;stroke:#000000;stroke-width:2.5;stroke-linecap:round;stroke-linejoin:miter;stroke-miterlimit:4;stroke-dasharray:none;stroke-opacity:1" />
          <path
             id="path1024"
             d="m 273.14172,472.07147 c -8.96773,0.24563 -17.13456,4.76594 -24.3384,9.75044 -7.92428,5.50307 -14.9378,12.17016 -21.61834,19.09856 -8.78222,8.95195 -16.7461,18.68662 -24.16825,28.78598 -0.83569,0.66538 -0.43321,2.08009 0.71279,1.9283 10.10709,0.73006 20.23352,1.31971 30.36668,1.50098 13.60654,0.049 27.21947,0.11418 40.8212,-0.28182 21.43756,-1.08763 42.91756,-3.18209 63.83987,-8.14151 1.31366,-0.76477 0.0423,-2.38766 -0.0598,-3.53441 -3.37847,-11.58565 -9.36913,-22.53748 -18.05437,-30.99951 -10.28105,-10.45094 -24.59415,-16.31032 -39.06843,-17.65894 -2.80036,-0.29146 -5.61609,-0.49025 -8.43314,-0.44807 z m -18.69599,18.56148 c 4.11999,0.22295 8.21,1.24938 12.02301,2.81464 3.88541,1.62023 7.78452,4.66945 8.31347,9.1289 0.67883,4.68017 -2.46323,8.81984 -5.77535,11.7416 -2.51761,2.12626 -5.20836,4.11833 -8.25103,5.42219 -1.39278,0.5106 -2.2763,-1.51237 -1.22978,-2.34557 4.19705,-2.51412 8.51426,-5.27587 11.24013,-9.45731 1.69106,-2.65729 1.70534,-6.46431 -0.68041,-8.72418 -3.64419,-3.60026 -8.91865,-4.78081 -13.80824,-5.58478 -1.14724,-0.24205 -3.11067,-0.0614 -3.22252,-1.66598 0.0515,-0.65807 0.61822,-1.53395 1.39072,-1.32951 z m -19.36387,16.28192 c 2.64508,-0.0756 3.60001,3.98539 1.25694,5.14202 -1.7878,1.19583 -4.31389,-0.40231 -4.19,-2.48996 -0.0183,-1.54076 1.41364,-2.79015 2.93306,-2.65206 z"
             style="fill:#666666;fill-opacity:0.25;stroke:none;stroke-width:7;stroke-linecap:round;stroke-linejoin:round;stroke-miterlimit:4;stroke-dasharray:none" />
          <path
             id="path1026"
             d="m 228.50254,477.8675 c -3.66345,-0.22122 -6.51604,3.09838 -7.04889,6.49179 -0.80605,4.72625 0.42258,9.55115 1.96691,13.99798 0.9115,1.15156 1.96608,-0.41162 2.66467,-1.01356 4.93443,-4.82033 9.9411,-9.59997 15.29461,-13.93238 0.92753,-1.31099 -1.09601,-1.84866 -1.94598,-2.41365 -3.39948,-1.69438 -7.04491,-3.3142 -10.93132,-3.13018 z"
             style="fill:#666666;fill-opacity:0.25;stroke:none;stroke-width:3.92304;stroke-linecap:round;stroke-linejoin:round" />
        </g>
      </g>
    </g>
  </g>
</svg>
